<svg xmlns="http://www.w3.org/2000/svg" width="38.406" height="38.5" viewBox="0 0 38.406 38.5">
  <metadata><?xpacket begin="﻿" id="W5M0MpCehiHzreSzNTczkc9d"?>
<x:xmpmeta xmlns:x="adobe:ns:meta/" x:xmptk="Adobe XMP Core 5.6-c142 79.160924, 2017/07/13-01:06:39        ">
   <rdf:RDF xmlns:rdf="http://www.w3.org/1999/02/22-rdf-syntax-ns#">
      <rdf:Description rdf:about=""/>
   </rdf:RDF>
</x:xmpmeta>
                                                                                                    
                                                                                                    
                                                                                                    
                                                                                                    
                                                                                                    
                                                                                                    
                                                                                                    
                                                                                                    
                                                                                                    
                                                                                                    
                                                                                                    
                                                                                                    
                                                                                                    
                                                                                                    
                                                                                                    
                                                                                                    
                                                                                                    
                                                                                                    
                                                                                                    
                                                                                                    
                           
<?xpacket end="w"?></metadata>
<defs>
    <style>
      .cls-1 {
        fill: #fff;
        fill-rule: evenodd;
      }
    </style>
  </defs>
  <path id="iconwhite-availability" class="cls-1" d="M453.677,1321.58a5.5,5.5,0,0,1,3.6,1.28c0.116,0.16.233,0.31,0.349,0.47h0.232c0.039,0.07.078,0.15,0.117,0.23h0.232v0.11l0.465,0.12v0.12h1.86v-0.12h0.7v-0.12h0.814v0.12h0.813v0.12c0.233,0.04.465,0.07,0.7,0.11v0.12h0.232c0.039,0.08.077,0.15,0.116,0.23h0.233v0.12c0.155,0.11.31,0.23,0.465,0.35v0.23c0.116,0.08.232,0.15,0.348,0.23v0.23l0.233,0.12v0.23H465.3c0.039,0.16.077,0.31,0.116,0.47h0.116l0.117,0.69h0.116v0.24h0.116v0.23H466v0.23l0.7,0.93h0.232c0.039,0.08.078,0.16,0.116,0.23h0.233v0.12l0.465,0.12v0.11h0.348v0.12h0.349v0.12c0.233,0.07.465,0.15,0.7,0.23v0.11h0.233c0.077,0.12.155,0.24,0.232,0.35h0.233c0.116,0.16.232,0.31,0.349,0.47,0.116,0.08.232,0.15,0.348,0.23v0.23l0.233,0.12v0.35a4.521,4.521,0,0,1,.348,2.55H471c-0.039.59-.077,1.17-0.116,1.75H471v0.58h0.116v0.23l0.233,0.12v0.23l0.232,0.12v0.23c0.155,0.11.31,0.23,0.465,0.35v0.23c0.116,0.08.233,0.15,0.349,0.23v0.23l0.232,0.12q0.174,0.525.349,1.05h0.116c0.078,0.46.155,0.93,0.233,1.39H473.2v0.58h-0.116c-0.038.24-.077,0.47-0.116,0.7h-0.116c-0.039.16-.078,0.31-0.116,0.47h-0.117v0.23a2.433,2.433,0,0,1-.232.11v0.24c-0.155.11-.31,0.23-0.465,0.35-0.039.15-.078,0.31-0.116,0.46l-0.233.12v0.23l-0.232.12v0.23h-0.116v0.23h-0.117v0.35H471a6.491,6.491,0,0,0,.233,2.56,7.048,7.048,0,0,1-.465,2.55l-0.233.12v0.23h-0.116c-0.116.16-.232,0.31-0.349,0.47h-0.232c-0.078.11-.155,0.23-0.233,0.34h-0.232l-0.116.24h-0.233v0.11l-0.465.12v0.12c-0.232.03-.465,0.07-0.7,0.11v0.12c-0.155.04-.31,0.08-0.465,0.11v0.12l-0.465.12c-0.039.07-.077,0.15-0.116,0.23h-0.233c-0.309.5-.619,1.01-0.929,1.51v0.35h-0.117v0.23h-0.116v0.35H465.3v0.23l-0.232.12v0.23l-0.233.12v0.23c-0.232.19-.465,0.39-0.7,0.58-0.039.08-.078,0.16-0.117,0.23a5.62,5.62,0,0,1-2.905.7,6.505,6.505,0,0,0-2.557-.23v0.11l-0.465.12v0.12h-0.233c-0.038.07-.077,0.15-0.116,0.23h-0.232c-0.117.15-.233,0.31-0.349,0.46h-0.232c-0.117.16-.233,0.31-0.349,0.47l-0.465.12c-0.039.07-.078,0.15-0.116,0.23h-0.349v0.11h-0.232v0.12h-0.349v0.12h-0.465v0.11a2.434,2.434,0,0,1-1.511-.23h-0.349v-0.12c-0.232-.07-0.465-0.15-0.7-0.23v-0.11h-0.232v-0.12h-0.233c-0.116-.16-0.232-0.31-0.349-0.47H451c-0.116-.15-0.233-0.31-0.349-0.46h-0.232c-0.039-.08-0.078-0.16-0.116-0.23h-0.233v-0.12l-0.465-.12v-0.11H447.75v0.11h-0.7v0.12h-0.813v-0.12h-0.814v-0.11l-0.7-.12v-0.11H444.5l-0.116-.24h-0.233v-0.11c-0.154-.12-0.309-0.23-0.464-0.35v-0.23l-0.349-.24v-0.23a2.449,2.449,0,0,0-.233-0.11v-0.24h-0.116c-0.039-.15-0.077-0.31-0.116-0.46h-0.116v-0.35h-0.117v-0.35h-0.116c-0.038-.23-0.077-0.46-0.116-0.7h-0.116c-0.039-.15-0.078-0.31-0.116-0.46h-0.117v-0.23c-0.31-.24-0.62-0.47-0.929-0.7h-0.233v-0.12H440.66v-0.11l-0.7-.12v-0.12h-0.348v-0.11l-0.465-.12c-0.039-.08-0.078-0.15-0.117-0.23H438.8c-0.039-.08-0.077-0.16-0.116-0.23h-0.233c-0.232-.27-0.465-0.55-0.7-0.82-0.078-.04-0.155-0.07-0.233-0.11v-0.24h-0.116a8.28,8.28,0,0,1-.348-2.32h0.116v-0.81h0.116v-1.86h-0.116c-0.039-.16-0.078-0.31-0.116-0.47a2.449,2.449,0,0,0-.233-0.11v-0.24c-0.077-.04-0.155-0.07-0.232-0.11v-0.24c-0.194-.15-0.388-0.31-0.581-0.46v-0.23l-0.349-.24v-0.23h-0.116c-0.078-.23-0.155-0.46-0.233-0.7H435.2v-0.34h-0.116v-0.47h-0.117a2.717,2.717,0,0,1,.233-1.63v-0.35h0.116l0.233-.69h0.116v-0.24c0.116-.07.232-0.15,0.349-0.23v-0.23c0.193-.16.387-0.31,0.581-0.47v-0.23c0.077-.04.155-0.07,0.232-0.11v-0.24a2.449,2.449,0,0,0,.233-0.11c0.038-.16.077-0.31,0.116-0.47h0.116v-1.86h-0.116v-0.69h-0.116a4.373,4.373,0,0,1,.348-2.1v-0.35a2.663,2.663,0,0,1,.581-0.58l0.581-.69H438.8l0.116-.24c0.233-.07.465-0.15,0.7-0.23v-0.11h0.232v-0.12H440.2v-0.12h0.348v-0.11l0.465-.12v-0.12h0.233c0.038-.07.077-0.15,0.116-0.23h0.232l0.7-.93v-0.23H442.4v-0.23h0.116v-0.24h0.116l0.117-.69h0.116c0.039-.16.077-0.31,0.116-0.47a2.449,2.449,0,0,1,.233-0.11v-0.24c0.077-.04.155-0.07,0.232-0.11v-0.24c0.194-.15.388-0.3,0.581-0.46,0.078-.12.155-0.23,0.233-0.35H444.5c0.039-.08.078-0.15,0.116-0.23h0.233v-0.12h0.349v-0.11h0.348v-0.12h0.814v-0.12l1.511,0.12v0.12h1.859v-0.12l0.465-.12v-0.11h0.233c0.039-.08.077-0.16,0.116-0.23h0.232c0.117-.16.233-0.31,0.349-0.47h0.233c0.116-.15.232-0.31,0.348-0.46l0.465-.12c0.039-.08.078-0.16,0.116-0.23h0.349v-0.12h0.233v-0.12c0.271-.03.542-0.07,0.813-0.11v-0.12Zm0.233,6.28c-0.326.27-1.023-.03-1.511,0.11v0.12h-0.7v0.12H451.12v0.11h-0.465v0.12h-0.348v0.12h-0.349v0.11h-0.349a13.893,13.893,0,0,0-7.555,7.44v0.35h-0.116v0.35h-0.116v0.35h-0.116v0.46h-0.117v0.47h-0.116v0.58h-0.116v0.93a8.923,8.923,0,0,0,.349,4.41c0.116,0.51.232,1.01,0.348,1.51a14.339,14.339,0,0,0,5.579,6.51l0.465,0.12v0.12h0.233v0.11c0.232,0.08.465,0.16,0.7,0.23v0.12h0.349v0.12h0.232v0.11h0.349a10.131,10.131,0,0,0,4.184.7h1.743v-0.12h0.7v-0.11l1.046-.12v-0.11h0.349v-0.12h0.348v-0.12h0.349v-0.11h0.232v-0.12h0.349v-0.12c0.233-.07.465-0.15,0.7-0.23v-0.11h0.233v-0.12l0.465-.12c0.039-.07.077-0.15,0.116-0.23H461c0.039-.08.078-0.15,0.117-0.23h0.232c0.039-.08.078-0.16,0.116-0.23H461.7l0.116-.24h0.233c0.155-.19.309-0.38,0.464-0.58h0.233l0.7-.81c0.117-.08.233-0.16,0.349-0.23v-0.24c0.194-.15.387-0.31,0.581-0.46v-0.23l0.349-.24v-0.23a2.433,2.433,0,0,1,.232-0.11c0.039-.12.078-0.24,0.117-0.35h0.116v-0.24H465.3v-0.23h0.116v-0.23h0.116v-0.23l0.233-.12v-0.23h0.116v-0.35H466v-0.23h0.117c0.038-.2.077-0.39,0.116-0.58h0.116v-0.35h0.116v-0.35h0.116v-0.47H466.7v-0.46h0.116v-0.58h0.116v-1.05h0.116a6.866,6.866,0,0,0-.116-2.32v-0.93h-0.116v-0.58H466.7v-0.47h-0.117v-0.46h-0.116v-0.35h-0.116v-0.35H466.23v-0.35h-0.116c-0.039-.15-0.078-0.31-0.117-0.46h-0.116v-0.35h-0.116c-0.039-.16-0.078-0.31-0.116-0.47h-0.117v-0.23l-0.232-.12c-0.039-.15-0.078-0.31-0.116-0.46l-0.233-.12v-0.23l-0.232-.12v-0.23c-0.116-.08-0.233-0.15-0.349-0.23C462.2,1330.02,458.92,1328.09,453.91,1327.86Zm8.019,20.57H461.7l-0.814.93h-0.232c-0.078.12-.155,0.23-0.233,0.35h-0.232c-0.039.08-.078,0.15-0.116,0.23l-0.465.12c-0.039.08-.078,0.15-0.116,0.23l-0.465.12v0.11l-0.465.12v0.12H458.21v0.11h-0.232v0.12h-0.349a9.4,9.4,0,0,1-5.114.46h-0.581v-0.11h-0.465v-0.12l-0.814-.12a9.958,9.958,0,0,1-4.3-2.9c-0.233-.2-0.465-0.39-0.7-0.58v-0.24c-0.116-.07-0.232-0.15-0.348-0.23v-0.23l-0.233-.12v-0.23l-0.232-.12v-0.23h-0.116v-0.23h-0.117v-0.23H444.5v-0.24h-0.116v-0.23h-0.116c-0.039-.15-0.078-0.31-0.117-0.46H444.03c-0.038-.23-0.077-0.47-0.116-0.7a10.037,10.037,0,0,1,0-6.63q0.058-.345.116-0.69h0.116c0.078-.23.155-0.47,0.233-0.7H444.5v-0.23h0.116c0.078-.23.155-0.47,0.233-0.7l0.232-.12v-0.23a2.449,2.449,0,0,1,.233-0.11v-0.24c0.116-.07.232-0.15,0.348-0.23v-0.23c0.233-.2.465-0.39,0.7-0.58v-0.24a2.433,2.433,0,0,0,.232-0.11v-0.12h0.233c0.193-.23.387-0.46,0.581-0.7h0.232c0.078-.11.155-0.23,0.233-0.34H448.1c0.039-.08.078-0.16,0.116-0.24,0.155-.04.31-0.07,0.465-0.11l0.117-.24c0.155-.03.31-0.07,0.464-0.11v-0.12c0.155-.04.311-0.07,0.465-0.11v-0.12h0.349v-0.12h0.233v-0.11h0.348v-0.12H451v-0.11h0.465v-0.12h0.465v-0.12h0.581v-0.11h1.4l0.232-.12v0.12h1.627v0.11h0.581v0.12h0.465v0.12h0.465v0.11h0.349v0.12h0.349a11.789,11.789,0,0,1,6.16,5.93v0.34h0.116v0.24h0.116q0.058,0.345.116,0.69H464.6v0.47h0.116v0.58h0.116v0.81h0.116a6.4,6.4,0,0,1-.116,2.21l-0.116,1.4H464.6c-0.117.5-.233,1-0.349,1.51h-0.116l-0.233.69h-0.116v0.24h-0.116v0.23h-0.116c-0.039.15-.078,0.31-0.117,0.46l-0.232.12v0.23l-0.233.12v0.23c-0.116.08-.232,0.16-0.348,0.23v0.24H462.51A2.047,2.047,0,0,0,461.929,1348.43Zm-3.6-11.97v0.12h-0.348a6.583,6.583,0,0,1-1.163,1.16l-2.44,2.55h-0.117a3.976,3.976,0,0,1-1.394,1.28l-0.814-.93h-0.232l-1.628-1.74h-0.465v-0.12l-0.7.24a1.651,1.651,0,0,0-.349,1.27l0.814,0.93c0.62,0.59,1.24,1.17,1.86,1.75,0.543,0.54.774,1.13,1.859,1.16a1.053,1.053,0,0,1,.465-0.23c0.039-.08.078-0.16,0.116-0.23,0.194-.16.388-0.31,0.582-0.47l3.486-3.6c0.272-.24.543-0.47,0.814-0.7,0.077-.12.155-0.23,0.232-0.35h0.233c0.039-.08.077-0.15,0.116-0.23h0.116v-0.23l0.233-.12v-0.93c-0.132-.13-0.047,0-0.116-0.23A2.219,2.219,0,0,0,458.326,1336.46Z" transform="translate(-434.906 -1321.59)"/>
</svg>
