<svg xmlns="http://www.w3.org/2000/svg" width="30.563" height="30.53" viewBox="0 0 30.563 30.53">
  <metadata><?xpacket begin="﻿" id="W5M0MpCehiHzreSzNTczkc9d"?>
<x:xmpmeta xmlns:x="adobe:ns:meta/" x:xmptk="Adobe XMP Core 5.6-c142 79.160924, 2017/07/13-01:06:39        ">
   <rdf:RDF xmlns:rdf="http://www.w3.org/1999/02/22-rdf-syntax-ns#">
      <rdf:Description rdf:about=""/>
   </rdf:RDF>
</x:xmpmeta>
                                                                                                    
                                                                                                    
                                                                                                    
                                                                                                    
                                                                                                    
                                                                                                    
                                                                                                    
                                                                                                    
                                                                                                    
                                                                                                    
                                                                                                    
                                                                                                    
                                                                                                    
                                                                                                    
                                                                                                    
                                                                                                    
                                                                                                    
                                                                                                    
                                                                                                    
                                                                                                    
                           
<?xpacket end="w"?></metadata>
<defs>
    <style>
      .cls-1 {
        fill: #fff;
        fill-rule: evenodd;
      }
    </style>
  </defs>
  <path id="iconwhite-low_latency" class="cls-1" d="M466.018,1023a9.7,9.7,0,0,1,1.75.08,1.867,1.867,0,0,0,.318.4,7.52,7.52,0,0,1-.159,2.14c-0.026.43-.053,0.85-0.079,1.28q-0.238,1.11-.478,2.22h-0.079v0.24h-0.08v0.24h-0.079v0.32h-0.08v0.24h-0.079v0.24h-0.08v0.24h-0.079v0.23h-0.08v0.16h-0.079c-0.027.16-.053,0.32-0.08,0.48H466.5v0.16h-0.08v0.24h-0.08c-0.026.1-.053,0.21-0.079,0.32h-0.08v0.23H466.1v0.16h-0.08c-0.026.11-.053,0.22-0.079,0.32h-0.08v0.16H465.78v0.16H465.7v0.16h-0.079v0.16h-0.08v0.16h-0.079v0.16h-0.08v0.15H465.3v0.16h-0.08v0.16h-0.079v0.16a1.194,1.194,0,0,1-.16.08l-0.159.48c-0.053.03-.106,0.05-0.159,0.08v0.16h-0.079v0.16a1.183,1.183,0,0,0-.159.08v0.16c-0.053.02-.106,0.05-0.159,0.07v0.16a1.183,1.183,0,0,1-.159.08v0.16h-0.08c-0.026.08-.053,0.16-0.08,0.24-0.053.03-.106,0.05-0.159,0.08v0.16c-0.053.03-.106,0.05-0.159,0.08v0.16a1.183,1.183,0,0,0-.159.08c-0.026.08-.053,0.16-0.079,0.24-0.08.05-.159,0.1-0.239,0.16v0.15c-0.079.06-.159,0.11-0.238,0.16v0.16l-0.319.24a10.95,10.95,0,0,1-1.193,1.43c-0.4.37-.795,0.75-1.193,1.12v0.71a3.183,3.183,0,0,0-.079.88l-0.477,2.46h-0.08c-0.132.48-.265,0.96-0.4,1.43H459.1v0.16h-0.08v0.24H458.94v0.16h-0.08c-0.026.13-.053,0.27-0.079,0.4H458.7l-0.159.48h-0.079v0.15h-0.08l-0.159.48a1.183,1.183,0,0,1-.159.08c-0.027.11-.053,0.21-0.08,0.32-0.053.03-.106,0.05-0.159,0.08-0.026.11-.053,0.21-0.079,0.32a1.183,1.183,0,0,0-.159.08v0.16h-0.08c-0.026.08-.053,0.15-0.079,0.23a1.183,1.183,0,0,1-.159.08v0.16a1.183,1.183,0,0,1-.159.08l-0.08.24c-0.08.05-.159,0.11-0.239,0.16v0.16l-0.318.24v0.16c-0.212.18-.424,0.37-0.636,0.55v0.16c-0.079.06-.159,0.11-0.239,0.16v0.08a0.722,0.722,0,0,1-.636.16,0.578,0.578,0,0,1-.557-0.72c-0.238-1.53-.477-3.07-0.715-4.61h-0.08v0.08a1.977,1.977,0,0,1-1.272.64c-0.69-.67-1.379-1.33-2.068-1.99l-4.3-4.38-1.591-1.59a2.257,2.257,0,0,1-.557-0.55v-0.24h-0.079a3.2,3.2,0,0,1,.795-1.19h-0.477a3.669,3.669,0,0,0-1.113-.16c-0.64-.19-1.516-0.22-2.148-0.4H440.17v-0.08h-0.557v-0.08h-0.159v-0.08c-0.219-.13-0.149.07-0.238-0.24h-0.08v-0.55l0.4-.48h0.159c0.185-.21.371-0.43,0.556-0.64h0.159c0.08-.1.16-0.21,0.239-0.32h0.159c0.08-.1.159-0.21,0.239-0.31H441.2c0.026-.06.053-0.11,0.079-0.16h0.159c0.027-.06.053-0.11,0.08-0.16h0.159c0.027-.06.053-0.11,0.08-0.16h0.159c0.026-.05.053-0.11,0.079-0.16h0.159c0.027-.05.053-0.11,0.08-0.16,0.106-.03.212-0.05,0.318-0.08,0.026-.05.053-0.11,0.079-0.16h0.16v-0.08h0.159v-0.08h0.159v-0.08h0.159v-0.08h0.159a14.53,14.53,0,0,1,6.919-1.75c0.61-.63,1.22-1.27,1.83-1.91h0.159c0.132-.15.265-0.31,0.4-0.47H452.9c0.08-.11.159-0.21,0.239-0.32h0.159c0.079-.11.159-0.21,0.239-0.32h0.159l0.159-.24h0.159c0.026-.05.053-0.1,0.079-0.16h0.159c0.053-.08.106-0.16,0.159-0.23h0.16c0.026-.06.052-0.11,0.079-0.16a2.234,2.234,0,0,1,.239-0.08v-0.08h0.159c0.026-.06.053-0.11,0.079-0.16,0.106-.03.212-0.06,0.318-0.08,0.027-.05.053-0.11,0.08-0.16,0.106-.03.212-0.05,0.318-0.08,0.027-.05.053-0.11,0.08-0.16h0.159v-0.08h0.159c0.026-.05.053-0.1,0.079-0.16h0.159v-0.08h0.159v-0.08h0.159v-0.08h0.159v-0.08h0.16c0.026-.05.053-0.1,0.079-0.16,0.106-.02.212-0.05,0.318-0.07v-0.08c0.106-.03.212-0.06,0.318-0.08v-0.08h0.239v-0.08h0.159v-0.08c0.159-.06.318-0.11,0.477-0.16v-0.08h0.239v-0.08c0.106-.03.212-0.05,0.318-0.08v-0.08c0.159-.03.318-0.05,0.477-0.08v-0.08h0.159v-0.08c0.159-.02.318-0.05,0.477-0.08v-0.08h0.16v-0.08h0.318v-0.08h0.238v-0.08h0.239v-0.08h0.238v-0.07c0.186-.03.372-0.06,0.557-0.08v-0.08h0.318v-0.08h0.4v-0.08h0.318v-0.08h0.4v-0.08h0.4v-0.08h0.478v-0.08A7.43,7.43,0,0,0,466.018,1023Zm-7.237,5.57v0.08h-0.4v0.08h-0.159v0.08h-0.239v0.08h-0.159v0.07h-0.159c-0.026.06-.053,0.11-0.079,0.16h-0.159c-0.08.11-.159,0.22-0.239,0.32h-0.159c-0.026.08-.053,0.16-0.08,0.24l-0.318.24v0.16h-0.079l-0.159.48h-0.08v0.23h-0.079v0.32a3.258,3.258,0,0,0,.477,2.55l0.477,0.39,0.159,0.24h0.159c0.027,0.06.053,0.11,0.08,0.16h0.159c0.026,0.06.053,0.11,0.079,0.16h0.239v0.08h0.159v0.08a4.844,4.844,0,0,0,1.511.16,3.087,3.087,0,0,0,1.909-1.11l0.318-.24,0.159-.48h0.08c0.026-.11.053-0.21,0.079-0.32h0.08c0.026-.29.053-0.58,0.079-0.87h0.08a2.342,2.342,0,0,0-.159-0.88c-0.027-.18-0.053-0.37-0.08-0.55H462.2v-0.16h-0.08v-0.16a1.183,1.183,0,0,0-.159-0.08v-0.16c-0.053-.03-0.106-0.05-0.159-0.08v-0.16c-0.053-.03-0.106-0.05-0.159-0.08-0.08-.11-0.159-0.21-0.239-0.32h-0.159l-0.159-.24h-0.159v-0.08l-0.477-.15v-0.08h-0.239v-0.08h-0.318v-0.08h-1.113Zm-15.589,14.79c1.92-.01,2.866.47,3.659,1.59,0.079,0.05.159,0.11,0.238,0.16l0.159,0.48h0.08c0.026,0.1.053,0.21,0.079,0.32h0.08a6.472,6.472,0,0,1,.159,2.14h-0.079v0.32h-0.08c-0.026.16-.053,0.32-0.08,0.48h-0.079c-0.027.1-.053,0.21-0.08,0.32h-0.079v0.16c-0.053.02-.106,0.05-0.159,0.07v0.16a1.183,1.183,0,0,1-.159.08v0.16c-0.133.11-.265,0.21-0.4,0.32-0.026.05-.053,0.11-0.08,0.16h-0.158l-0.16.24c-0.106.03-.212,0.05-0.318,0.08-0.026.05-.053,0.1-0.079,0.16-0.159.05-.318,0.1-0.477,0.16V1051h-0.16v0.08l-0.477.15v0.08h-0.238v0.08c-0.106.03-.212,0.06-0.318,0.08v0.08h-0.239v0.08c-0.106.03-.212,0.06-0.318,0.08v0.08h-0.239v0.08h-0.159v0.08c-0.159.03-.318,0.05-0.477,0.08v0.08H442.4v0.08c-0.159.03-.318,0.05-0.477,0.08v0.08h-0.159v0.08h-0.239v0.08h-0.239v0.08h-0.238v0.08h-0.239v0.08h-0.238v0.07h-0.239v0.08H440.09v0.08h-0.238v0.08h-0.239v0.08h-0.238v0.08h-0.239v0.08H438.9v0.08c-0.318.05-.636,0.11-0.954,0.16v-0.08h-0.159l-0.159-.24h-0.08v-0.71h0.08c0.026-.16.053-0.32,0.079-0.48h0.08v-0.24h0.079v-0.24h0.08v-0.24h0.079v-0.23h0.08v-0.24h0.08v-0.24h0.079v-0.24h0.08v-0.24h0.079v-0.24h0.08v-0.24h0.079c0.027-.16.053-0.31,0.08-0.47h0.079v-0.16h0.08c0.026-.16.053-0.32,0.079-0.48h0.08v-0.16h0.079v-0.24h0.08v-0.16h0.08v-0.24H439.3v-0.15h0.08v-0.24h0.079v-0.16h0.08v-0.24h0.079l0.159-.48h0.08v-0.16h0.079v-0.24c0.053-.02.106-0.05,0.159-0.07v-0.16h0.08v-0.16h0.079v-0.16h0.08v-0.16h0.079v-0.16c0.266-.32.531-0.64,0.8-0.95h0.159l0.159-.24c0.106-.03.212-0.06,0.318-0.08,0.027-.06.053-0.11,0.08-0.16C442.344,1043.63,442.768,1043.49,443.192,1043.36Z" transform="translate(-437.531 -1023)"/>
</svg>
