<svg xmlns="http://www.w3.org/2000/svg" width="34.938" height="32.94" viewBox="0 0 34.938 32.94">
  <metadata><?xpacket begin="﻿" id="W5M0MpCehiHzreSzNTczkc9d"?>
<x:xmpmeta xmlns:x="adobe:ns:meta/" x:xmptk="Adobe XMP Core 5.6-c142 79.160924, 2017/07/13-01:06:39        ">
   <rdf:RDF xmlns:rdf="http://www.w3.org/1999/02/22-rdf-syntax-ns#">
      <rdf:Description rdf:about=""/>
   </rdf:RDF>
</x:xmpmeta>
                                                                                                    
                                                                                                    
                                                                                                    
                                                                                                    
                                                                                                    
                                                                                                    
                                                                                                    
                                                                                                    
                                                                                                    
                                                                                                    
                                                                                                    
                                                                                                    
                                                                                                    
                                                                                                    
                                                                                                    
                                                                                                    
                                                                                                    
                                                                                                    
                                                                                                    
                                                                                                    
                           
<?xpacket end="w"?></metadata>
<defs>
    <style>
      .cls-1 {
        fill: #fff;
        fill-rule: evenodd;
      }
    </style>
  </defs>
  <path id="iconwhite-monitoring" class="cls-1" d="M444.119,1176.46H444.3a4.243,4.243,0,0,1,1.364-1.18l0.182-.27,0.364-.09c0.031-.06.061-0.12,0.091-0.18,0.091-.03.182-0.06,0.273-0.1v-0.09l0.546-.18c0.03-.06.06-0.12,0.091-0.18l0.818-.27v-0.09l0.364-.09v-0.1h0.273v-0.09h0.273v-0.09h0.273v-0.09h0.273v-0.09h0.364v-0.09h0.363v-0.09h0.455v-0.09h0.546a6.354,6.354,0,0,1,2.82-.09l1.728,0.18v0.09l0.727,0.09v0.09h0.273v0.09h0.273v0.09h0.273v0.09h0.273v0.1l0.364,0.09v0.09h0.273v0.09l0.363,0.09v0.09l0.364,0.09c0.031,0.06.061,0.12,0.091,0.18l0.364,0.09c0.03,0.06.061,0.13,0.091,0.19l0.364,0.09,0.091,0.18h0.182l0.182,0.27h0.182c0.09,0.12.181,0.24,0.272,0.37h0.182c0.3,0.33.607,0.66,0.91,1l0.819,0.72v0.19l0.272,0.18v0.18l0.273,0.18v0.18l0.182,0.09c0.031,0.13.061,0.25,0.091,0.37l0.182,0.09c0.03,0.12.061,0.24,0.091,0.36l0.182,0.09c0.03,0.13.061,0.25,0.091,0.37h0.091l0.182,0.54H464.4v0.28h0.091v0.18h0.091v0.27h0.091v0.27h0.091v0.28h0.091v0.27h0.091v0.36h0.09v0.37h0.091v0.36h0.091v0.55h0.091a2.534,2.534,0,0,0,.091.82,4.011,4.011,0,0,0,1.092.09v0.09h0.455v0.09h0.272v0.09H467.5v0.09l0.364,0.09v0.09l0.364,0.09c0.03,0.06.061,0.12,0.091,0.19H468.5l0.273,0.36h0.182v0.09l0.273,0.18v0.18c0.121,0.09.242,0.19,0.363,0.28v0.18l0.182,0.09c0.061,0.18.122,0.36,0.182,0.55h0.091v0.18h0.091v0.27h0.091a7.517,7.517,0,0,1,.273,2.64v2.36h-0.091c-0.03.25-.061,0.49-0.091,0.73h-0.091c-0.03.18-.061,0.36-0.091,0.55h-0.091l-0.182.54h-0.091v0.18l-0.182.09v0.19l-0.363.27v0.18h-0.091l-0.182.27h-0.182c-0.091.13-.182,0.25-0.273,0.37h-0.182l-0.091.18-0.546.18v0.09H467.5v0.09h-0.273v0.09a7.314,7.314,0,0,1-2.364.19h-0.91v-0.09c-0.121-.03-0.243-0.07-0.364-0.1a5.058,5.058,0,0,1-.364-0.54V1184.2h-0.091v-0.64h-0.091v-0.46h-0.091v-0.45h-0.09v-0.27h-0.091v-0.28h-0.091v-0.27h-0.091v-0.27h-0.091v-0.28H462.4q-0.091-.27-0.182-0.54h-0.091v-0.18h-0.091c-0.031-.12-0.061-0.25-0.091-0.37l-0.182-.09c-0.03-.12-0.061-0.24-0.091-0.36l-0.182-.09v-0.18a1.736,1.736,0,0,1-.182-0.1v-0.18l-0.273-.18v-0.18c-0.182-.15-0.364-0.3-0.545-0.46-0.031-.09-0.061-0.18-0.091-0.27l-0.273-.18v-0.09h-0.182c-0.182-.21-0.364-0.43-0.546-0.64h-0.182l-0.182-.27h-0.182c-0.03-.06-0.06-0.12-0.091-0.18l-0.273-.09v-0.1l-0.363-.09c-0.031-.06-0.061-0.12-0.091-0.18-0.728-.3-1.456-0.6-2.183-0.91h-0.364a9.326,9.326,0,0,0-5.639.18c-0.182.03-.364,0.07-0.546,0.1v0.09h-0.182v0.09h-0.273v0.09l-0.546.18v0.09l-0.364.09c-0.03.06-.06,0.12-0.091,0.18l-0.363.09v0.1l-0.273.09c-0.031.06-.061,0.12-0.091,0.18h-0.182l-0.273.36h-0.182c-0.151.18-.3,0.37-0.455,0.55h-0.182v0.09l-0.273.18c-0.03.09-.06,0.18-0.091,0.27-0.181.16-.363,0.31-0.545,0.46v0.18l-0.273.18v0.18a1.641,1.641,0,0,1-.182.1v0.18l-0.182.09c-0.03.12-.061,0.24-0.091,0.36l-0.182.09c-0.03.12-.06,0.25-0.091,0.37h-0.091v0.18h-0.091q-0.09.27-.182,0.54h-0.091v0.28h-0.091v0.27H443.3v0.18H443.21v0.37h-0.091v0.27h-0.091v0.45h-0.091v0.46h-0.091v0.64a12.417,12.417,0,0,0-.091,2.82v8.91h-0.091c-0.03.12-.061,0.24-0.091,0.36a5.59,5.59,0,0,1-.546.37h-0.455v0.09a5.175,5.175,0,0,1-2.092-.18h-0.454v-0.1h-0.273v-0.09H438.48v-0.09H438.3v-0.09l-0.546-.18-0.091-.18h-0.182c-0.091-.12-0.182-0.24-0.273-0.37h-0.182v-0.09l-0.272-.18v-0.18l-0.364-.27v-0.19l-0.182-.09v-0.18h-0.091l-0.182-.54h-0.091c-0.03-.19-0.061-0.37-0.091-0.55H435.66v-0.36h-0.091v-4.73h0.091v-0.37h0.091c0.03-.18.061-0.36,0.091-0.54h0.091c0.061-.18.121-0.37,0.182-0.55h0.091v-0.18l0.182-.09v-0.18c0.121-.09.242-0.19,0.364-0.28v-0.18h0.09l0.182-.27h0.182l0.273-.36h0.182c0.03-.07.061-0.13,0.091-0.19l0.546-.18v-0.09h0.182v-0.09h0.273v-0.09h0.273v-0.09h0.454v-0.09a4,4,0,0,0,1.092-.09,5.9,5.9,0,0,0,.182-1.37h0.091l0.091-.82h0.091v-0.27h0.091v-0.27h0.091v-0.28H441.3l0.09-.54h0.091v-0.18h0.091v-0.28h0.091q0.091-.27.182-0.54h0.091c0.03-.12.061-0.24,0.091-0.37l0.182-.09,0.182-.54,0.182-.09v-0.19l0.273-.18v-0.18l0.182-.09v-0.18l0.273-.18v-0.19l0.181-.09A2.331,2.331,0,0,0,444.119,1176.46Zm-4,21.47h1.273c0.061,0.3.122,0.61,0.182,0.91h0.091v0.18h0.091v0.27h0.091v0.19h0.091v0.18h0.091c0.03,0.12.061,0.24,0.091,0.36l0.182,0.09v0.18c0.091,0.07.182,0.13,0.273,0.19v0.18l0.546,0.45c0.151,0.19.3,0.37,0.454,0.55h0.182c0.031,0.06.061,0.12,0.091,0.18l0.273,0.09v0.09H444.3c0.03,0.06.061,0.12,0.091,0.19l0.819,0.27v0.09a8.345,8.345,0,0,0,3.092.36c-0.03.15-.06,0.31-0.091,0.46a4.705,4.705,0,0,0,.091.73h-0.091a2.464,2.464,0,0,1-1.182.09,2.236,2.236,0,0,0-.819-0.09c-0.606-.19-1.213-0.37-1.819-0.55v-0.09l-0.364-.09v-0.09h-0.182c-0.03-.06-0.06-0.12-0.091-0.19l-0.364-.09-0.09-.18h-0.182l-0.182-.27h-0.182c-0.121-.15-0.243-0.3-0.364-0.46l-0.819-.72v-0.19l-0.182-.09v-0.18l-0.181-.09c-0.031-.09-0.061-0.18-0.091-0.27h-0.091c-0.031-.12-0.061-0.24-0.091-0.37h-0.091v-0.18h-0.091A6.541,6.541,0,0,1,440.117,1197.93Zm11.006,3.46h3.729v0.09h0.273v0.09h0.182l0.728,0.54v0.19l0.182,0.09c0.03,0.12.06,0.24,0.091,0.36H456.4v0.27h0.09a3.657,3.657,0,0,1-.09,1.37h-0.091v0.18h-0.091v0.18l-0.273.18c-0.724.99-1.637,0.82-3.275,0.82h-1.455v-0.09a3.745,3.745,0,0,1-.728-0.18l-0.182-.27-0.273-.09v-0.19l-0.272-.18v-0.18h-0.091v-0.18h-0.091a3.656,3.656,0,0,1-.091-1.37h0.091v-0.27h0.091v-0.18c0.182-.24.363-0.49,0.545-0.73H450.4c0.031-.06.061-0.12,0.091-0.18h0.182v-0.09l0.455-.09v-0.09Z" transform="translate(-435.562 -1172.81)"/>
</svg>
