<svg xmlns="http://www.w3.org/2000/svg" width="15" height="15" viewBox="0 0 15 15">
  <g id="Group_1" data-name="Group 1" transform="translate(-978 -3414)">
    <circle id="Ellipse_2_copy_3" data-name="Ellipse 2 copy 3" cx="7.5" cy="7.5" r="7.5" transform="translate(978 3414)" fill="#0d223e" opacity="0.302"/>
    <g id="Tick_06_-_www.Shapes4FREE.com_1_copy_3" data-name="Tick 06 - www.Shapes4FREE.com 1 copy 3" transform="translate(982 3418)">
      <path id="Tick_06_-_www.Shapes4FREE.com_1" data-name="Tick 06 - www.Shapes4FREE.com 1" d="M2.873,7a.805.805,0,0,1-.628-.3L.165,4.11A.743.743,0,0,1,.31,3.041a.816.816,0,0,1,1.113.139l1.36,1.7L5.521.378A.812.812,0,0,1,6.607.1a.746.746,0,0,1,.284,1.043L3.558,6.622A.8.8,0,0,1,2.924,7Z" fill="#fff"/>
    </g>
  </g>
</svg>
